<?xml version="1.0" encoding="utf-8"?>
<!-- Generator: Adobe Illustrator 21.1.0, SVG Export Plug-In . SVG Version: 6.00 Build 0)  -->
<svg version="1.1" xmlns="http://www.w3.org/2000/svg" xmlns:xlink="http://www.w3.org/1999/xlink" x="0px" y="0px"
	 viewBox="0 0 1280 901" style="enable-background:new 0 0 1280 901;" xml:space="preserve">
<style type="text/css">
	.st0{fill:#FF9D00;}
	.st1{fill:none;stroke:#373866;stroke-width:11;stroke-miterlimit:10;}
	.st2{fill:#373866;stroke:#FFFFFF;stroke-width:14;stroke-miterlimit:10;}
	.st3{fill:#373866;}
	.st4{opacity:0.12;}
	.st5{fill:#FFFFFF;}
</style>
<g id="Layer_4">
	<path class="st0" d="M1249,40v625.4c0,53.9-43.7,97.6-97.6,97.6H858.5c-85.8,0-162.5,38.5-214,99.1c-51.3-60.5-127.9-99-213.5-99.1
		H137.6C83.7,763,40,719.3,40,665.4V40H1249z"/>
	<path class="st1" d="M1216,78v554.8c0,51.1-41.4,92.6-92.6,92.6H845.8c-81.3,0-154.1,36.5-202.8,94c-48.7-57.4-121.3-93.8-202.4-94
		H162.6c-51.1,0-92.6-41.4-92.6-92.6V78H1216z"/>
	<path class="st0" d="M-773,193L-773,193c-1.8,0-3.7,0-5.5,0H-773z"/>
</g>
<g id="Layer_3">
	<path class="st2" d="M906.6,418.5c0,139.5-113.5,253-253,253c-76.1,0-142.4-47.8-142.5-47.8c-123.5-76.9-228-210.5-317.9-239.2
		l145.3-110.1c-7,53.7,129.5,290.6,274.3,339c0,0,0,0,0,0c3.5,0.7,7.1,1.4,10.7,1.9c9.8,1.5,19.8,2.3,30.1,2.3
		c109.8,0,199.1-89.3,199.1-199.1s-89.3-199.1-199.1-199.1s-199.1,89.3-199.1,199.1c0,27.3,5.5,53.4,15.5,77.1
		c-14.7-16.7-29.2-34.9-43.2-54.5c-9.3-13-17.9-26-25.7-38.5c8.2-132.1,118.3-237.1,252.5-237.1C793,165.5,906.6,279,906.6,418.5z"
		/>
	<path class="st2" d="M1008.5,384.1l23.8,23.8L878.4,553.5c16.4-27.2,28-57.6,33.6-90L1008.5,384.1z"/>
	<path class="st2" d="M1104.5,365.8c0,16.4-50.4,20.7-65.5,35.7c-0.1,1.8-23.6-24-23.3-23.3c15.4-15.4,27.8-65.3,41.9-65.3
		C1071.7,312.8,1104.5,349.4,1104.5,365.8z"/>
</g>
<g id="Layer_3_copy">
	<path class="st3" d="M906.6,418.5c0,139.5-113.5,253-253,253c-76.1,0-142.4-47.8-142.5-47.8c-123.5-76.9-228-210.5-317.9-239.2
		l145.3-110.1c-7,53.7,129.5,290.6,274.3,339c0,0,0,0,0,0c3.5,0.7,7.1,1.4,10.7,1.9c9.8,1.5,19.8,2.3,30.1,2.3
		c109.8,0,199.1-89.3,199.1-199.1s-89.3-199.1-199.1-199.1s-199.1,89.3-199.1,199.1c0,27.3,5.5,53.4,15.5,77.1
		c-14.7-16.7-29.2-34.9-43.2-54.5c-9.3-13-17.9-26-25.7-38.5c8.2-132.1,118.3-237.1,252.5-237.1C793,165.5,906.6,279,906.6,418.5z"
		/>
	<path class="st3" d="M1008.5,384.1l23.8,23.8L878.4,553.5c16.4-27.2,28-57.6,33.6-90L1008.5,384.1z"/>
	<path class="st3" d="M1104.5,365.8c0,16.4-50.4,20.7-65.5,35.7c-0.1,1.8-23.6-24-23.3-23.3c15.4-15.4,27.8-65.3,41.9-65.3
		C1071.7,312.8,1104.5,349.4,1104.5,365.8z"/>
</g>
<g id="Layer_5">
	<g class="st4">
		<path d="M644.5,861.4c-53.4-62.7-131.2-98.7-213.5-98.9H137.6c-53.6,0-97.1-43.6-97.1-97.1V553.1l1208-326.7v438.9
			c0,53.6-43.6,97.1-97.1,97.1H858.5C776,762.5,698,798.5,644.5,861.4z"/>
		<path class="st5" d="M1248,227.1v438.3c0,53.3-43.4,96.6-96.6,96.6H858.5c-82.5,0-160.4,35.9-214,98.6
			C591,798.1,513.3,762.1,431,762H137.6C84.4,762,41,718.6,41,665.4V553.5L1248,227.1 M1249,225.8L40,552.7v112.6
			c0,53.9,43.7,97.6,97.6,97.6H431c85.6,0.1,162.2,38.6,213.5,99.1c51.5-60.7,128.2-99.1,214-99.1h292.9c53.9,0,97.6-43.7,97.6-97.6
			V225.8L1249,225.8z"/>
	</g>
</g>
</svg>
